<svg width="35" height="34" viewBox="0 0 35 34" fill="none" xmlns="http://www.w3.org/2000/svg">
<rect width="35" height="34" rx="4" fill="white"/>
<path d="M6.66 25C6.54267 25 6.43267 24.956 6.33 24.868C6.242 24.7653 6.198 24.6553 6.198 24.538C6.198 24.4647 6.20533 24.3987 6.22 24.34L11.39 10.216C11.434 10.0547 11.522 9.91533 11.654 9.798C11.8007 9.666 11.9987 9.6 12.248 9.6H15.504C15.7533 9.6 15.944 9.666 16.076 9.798C16.2227 9.91533 16.318 10.0547 16.362 10.216L21.51 24.34C21.5393 24.3987 21.554 24.4647 21.554 24.538C21.554 24.6553 21.5027 24.7653 21.4 24.868C21.312 24.956 21.202 25 21.07 25H18.364C18.144 25 17.9753 24.9487 17.858 24.846C17.7553 24.7287 17.6893 24.626 17.66 24.538L16.802 22.294H10.928L10.092 24.538C10.0627 24.626 9.99667 24.7287 9.894 24.846C9.79133 24.9487 9.61533 25 9.366 25H6.66ZM11.83 19.126H15.922L13.854 13.318L11.83 19.126ZM23.838 25C23.6767 25 23.5447 24.9487 23.442 24.846C23.3394 24.7433 23.288 24.6113 23.288 24.45V10.15C23.288 9.98867 23.3394 9.85667 23.442 9.754C23.5447 9.65133 23.6767 9.6 23.838 9.6H26.786C26.9474 9.6 27.0794 9.65133 27.182 9.754C27.2847 9.85667 27.336 9.98867 27.336 10.15V24.45C27.336 24.6113 27.2847 24.7433 27.182 24.846C27.0794 24.9487 26.9474 25 26.786 25H23.838Z" fill="#131313"/>
</svg>
